<svg width="27" height="39" viewBox="0 0 27 39" fill="none" xmlns="http://www.w3.org/2000/svg">
<path d="M0.00132465 14.2594C0.0580064 12.0101 0.816463 10.0413 2.38736 8.42928C4.22817 6.54218 6.08517 4.6687 7.96107 2.81428C9.56975 1.224 11.5131 0.300875 13.7534 0.0639664C16.5416 -0.23285 19.041 0.502383 21.2273 2.28873C21.6403 2.62639 22.0128 3.00762 22.3879 3.38613C23.3839 4.39639 24.3853 5.40121 25.3813 6.40875C26.1532 7.19028 26.1532 8.18148 25.3813 8.96028C23.2193 11.1415 21.0573 13.3227 18.8953 15.5038C18.153 16.25 17.2002 16.2527 16.4606 15.5066C14.8627 13.8972 13.2703 12.2852 11.6724 10.6785C9.90984 8.90582 7.13513 8.70976 5.20795 10.2864C3.56958 11.6289 2.99466 13.4016 3.41303 15.4902C3.61006 16.4678 4.09861 17.2929 4.79768 17.9955C5.80986 19.0139 6.81663 20.0405 7.83421 21.0508C8.02585 21.2414 8.03934 21.3558 7.83691 21.5491C7.21341 22.1536 6.6088 22.7718 6.00419 23.3953C5.84225 23.5642 5.72618 23.5996 5.54264 23.4117C4.4252 22.268 3.27537 21.157 2.17952 19.9915C1.04319 18.7824 0.368406 17.3256 0.117387 15.6727C0.0472095 15.2016 -0.00947188 14.7332 0.00132465 14.2594Z" fill="url(#paint0_linear_12169_2199)"/>
<path d="M26.3261 24.1497C26.2694 26.3989 25.511 28.3677 23.9401 29.9798C22.0993 31.8669 20.2422 33.7404 18.3664 35.5948C16.7577 37.1851 14.8143 38.1082 12.574 38.3451C9.78581 38.6419 7.28641 37.9067 5.10012 36.1204C4.68715 35.7827 4.31467 35.4015 3.93949 35.023C2.94351 34.0127 1.94213 33.0079 0.946151 32.0003C0.1742 31.2188 0.1742 30.2276 0.946151 29.4488C3.10816 27.2676 5.27016 25.0864 7.43217 22.9052C8.17443 22.1591 9.12722 22.1564 9.86678 22.9025C11.4647 24.5118 13.0572 26.1239 14.655 27.7305C16.4176 29.5033 19.1923 29.6993 21.1195 28.1227C22.7578 26.7802 23.3328 25.0075 22.9144 22.9188C22.7174 21.9413 22.2288 21.1162 21.5297 20.4136C20.5176 19.3952 19.5108 18.3686 18.4932 17.3583C18.3016 17.1677 18.2881 17.0533 18.4905 16.86C19.114 16.2555 19.7186 15.6373 20.3232 15.0137C20.4852 14.8449 20.6012 14.8095 20.7848 14.9974C21.9022 16.1411 23.052 17.2521 24.1479 18.4176C25.2842 19.6266 25.959 21.0835 26.21 22.7364C26.2802 23.2075 26.3369 23.6731 26.3261 24.1497Z" fill="url(#paint1_linear_12169_2199)"/>
<path d="M19.5919 26.0875C19.4893 26.0875 19.3895 26.0494 19.3112 25.9704L6.45523 13.0004C6.30138 12.8452 6.30138 12.5919 6.45523 12.4367C6.60908 12.2815 6.8601 12.2815 7.01395 12.4367L19.8699 25.4068C20.0238 25.562 20.0238 25.8152 19.8699 25.9704C19.7943 26.0494 19.6945 26.0875 19.5919 26.0875Z" fill="url(#paint2_radial_12169_2199)"/>
<path d="M19.892 23.061C19.7895 23.061 19.6896 23.0228 19.6113 22.9439L9.45718 12.6996C9.30333 12.5444 9.30333 12.2912 9.45718 12.1359C9.61104 11.9807 9.86205 11.9807 10.0159 12.1359L20.17 22.3802C20.3239 22.5354 20.3239 22.7886 20.17 22.9439C20.0945 23.0228 19.9919 23.061 19.892 23.061Z" fill="url(#paint3_radial_12169_2199)"/>
<path d="M16.7202 26.393C16.6176 26.393 16.5177 26.3549 16.4394 26.2759L6.28531 16.0317C6.13146 15.8764 6.13146 15.6232 6.28531 15.468C6.43916 15.3128 6.69018 15.3128 6.84403 15.468L16.9982 25.7122C17.152 25.8674 17.152 26.1207 16.9982 26.2759C16.9226 26.3549 16.82 26.393 16.7202 26.393Z" fill="url(#paint4_radial_12169_2199)"/>
<defs>
<linearGradient id="paint0_linear_12169_2199" x1="11.0812" y1="-1.93894" x2="14.3389" y2="20.234" gradientUnits="userSpaceOnUse">
<stop stop-color="#352161"/>
<stop offset="0.7235" stop-color="#5B2D8F" stop-opacity="0.7"/>
<stop offset="1" stop-color="#1A1449" stop-opacity="0"/>
</linearGradient>
<linearGradient id="paint1_linear_12169_2199" x1="13.8196" y1="39.833" x2="12.9505" y2="17.2217" gradientUnits="userSpaceOnUse">
<stop stop-color="#352161"/>
<stop offset="0.7235" stop-color="#5B2D8F" stop-opacity="0.7"/>
<stop offset="1" stop-color="#1A1449" stop-opacity="0"/>
</linearGradient>
<radialGradient id="paint2_radial_12169_2199" cx="0" cy="0" r="1" gradientUnits="userSpaceOnUse" gradientTransform="translate(13.0352 18.9976) scale(9.83291 9.92017)">
<stop stop-color="#5B2D8F"/>
<stop offset="1" stop-color="#5B2D8F" stop-opacity="0"/>
</radialGradient>
<radialGradient id="paint3_radial_12169_2199" cx="0" cy="0" r="1" gradientUnits="userSpaceOnUse" gradientTransform="translate(14.8147 17.5398) scale(5.473 5.52157)">
<stop stop-color="#5B2D8F"/>
<stop offset="1" stop-color="#5B2D8F" stop-opacity="0"/>
</radialGradient>
<radialGradient id="paint4_radial_12169_2199" cx="0" cy="0" r="1" gradientUnits="userSpaceOnUse" gradientTransform="translate(11.642 20.8724) scale(5.473 5.52157)">
<stop stop-color="#5B2D8F"/>
<stop offset="1" stop-color="#5B2D8F" stop-opacity="0"/>
</radialGradient>
</defs>
</svg>
